<mxfile host="app.diagrams.net" agent="Mozilla/5.0 (Windows NT 10.0; Win64; x64) AppleWebKit/537.36 (KHTML, like Gecko) Chrome/136.0.0.0 Safari/537.36" version="27.0.6">
  <diagram name="Complete Flowchart" id="WuH5lPuAPLfUjadhceZF">
    <mxGraphModel dx="3079" dy="2119" grid="1" gridSize="10" guides="1" tooltips="1" connect="1" arrows="1" fold="1" page="1" pageScale="1" pageWidth="850" pageHeight="1100" math="0" shadow="0">
      <root>
        <mxCell id="0" />
        <mxCell id="1" parent="0" />
        <mxCell id="X-7tLOTNDGGn71ntqQBZ-1" value="n8n Orchestration" style="swimlane;html=1;startSize=20;horizontal=0;" parent="1" vertex="1">
          <mxGeometry x="-150" y="-500" width="1170" height="440" as="geometry" />
        </mxCell>
        <mxCell id="X-7tLOTNDGGn71ntqQBZ-2" value="Receive Item Request" style="rounded=1;whiteSpace=wrap;html=1;fillColor=#DAE8FC;strokeColor=#6C8EBF;" parent="X-7tLOTNDGGn71ntqQBZ-1" vertex="1">
          <mxGeometry x="50" y="70" width="150" height="50" as="geometry" />
        </mxCell>
        <mxCell id="X-7tLOTNDGGn71ntqQBZ-3" value="Fetch Product Data" style="rounded=1;whiteSpace=wrap;html=1;fillColor=#E1D5E7;strokeColor=#9673A6;" parent="X-7tLOTNDGGn71ntqQBZ-1" vertex="1">
          <mxGeometry x="240" y="70" width="150" height="50" as="geometry" />
        </mxCell>
        <mxCell id="X-7tLOTNDGGn71ntqQBZ-47" style="edgeStyle=orthogonalEdgeStyle;rounded=0;orthogonalLoop=1;jettySize=auto;html=1;" parent="X-7tLOTNDGGn71ntqQBZ-1" source="X-7tLOTNDGGn71ntqQBZ-4" edge="1">
          <mxGeometry relative="1" as="geometry">
            <mxPoint x="710" y="160" as="targetPoint" />
            <Array as="points">
              <mxPoint x="710" y="95" />
            </Array>
          </mxGeometry>
        </mxCell>
        <mxCell id="X-7tLOTNDGGn71ntqQBZ-48" style="edgeStyle=orthogonalEdgeStyle;rounded=0;orthogonalLoop=1;jettySize=auto;html=1;entryX=1;entryY=0.5;entryDx=0;entryDy=0;" parent="X-7tLOTNDGGn71ntqQBZ-1" source="X-7tLOTNDGGn71ntqQBZ-4" target="X-7tLOTNDGGn71ntqQBZ-6" edge="1">
          <mxGeometry relative="1" as="geometry">
            <mxPoint x="575" y="390" as="targetPoint" />
          </mxGeometry>
        </mxCell>
        <mxCell id="X-7tLOTNDGGn71ntqQBZ-4" value="Data Valid?" style="rhombus;whiteSpace=wrap;html=1;fillColor=#FFF2CC;strokeColor=#D6B656;" parent="X-7tLOTNDGGn71ntqQBZ-1" vertex="1">
          <mxGeometry x="510" y="65" width="100" height="60" as="geometry" />
        </mxCell>
        <mxCell id="X-7tLOTNDGGn71ntqQBZ-5" value="Clean &amp; Transform" style="rounded=1;whiteSpace=wrap;html=1;fillColor=#F8CECC;strokeColor=#B85450;" parent="X-7tLOTNDGGn71ntqQBZ-1" vertex="1">
          <mxGeometry x="630" y="160" width="160" height="50" as="geometry" />
        </mxCell>
        <mxCell id="X-7tLOTNDGGn71ntqQBZ-6" value="Error Handler &amp; Alert" style="rounded=1;whiteSpace=wrap;html=1;fillColor=#F8CECC;strokeColor=#B85450;" parent="X-7tLOTNDGGn71ntqQBZ-1" vertex="1">
          <mxGeometry x="380" y="360" width="150" height="50" as="geometry" />
        </mxCell>
        <mxCell id="X-7tLOTNDGGn71ntqQBZ-7" value="Trigger Model API" style="rounded=1;whiteSpace=wrap;html=1;fillColor=#D5E8D4;strokeColor=#82B366;" parent="X-7tLOTNDGGn71ntqQBZ-1" vertex="1">
          <mxGeometry x="380" y="260" width="150" height="50" as="geometry" />
        </mxCell>
        <mxCell id="X-7tLOTNDGGn71ntqQBZ-8" value="Receive &amp; Validate Predictions" style="rounded=1;whiteSpace=wrap;html=1;fillColor=#D5E8D4;strokeColor=#82B366;" parent="X-7tLOTNDGGn71ntqQBZ-1" vertex="1">
          <mxGeometry x="710" y="260" width="180" height="50" as="geometry" />
        </mxCell>
        <mxCell id="X-7tLOTNDGGn71ntqQBZ-9" value="Push to Downstream System" style="rounded=1;whiteSpace=wrap;html=1;fillColor=#D5E8D4;strokeColor=#82B366;" parent="X-7tLOTNDGGn71ntqQBZ-1" vertex="1">
          <mxGeometry x="950" y="260" width="180" height="50" as="geometry" />
        </mxCell>
        <mxCell id="X-7tLOTNDGGn71ntqQBZ-11" style="edgeStyle=orthogonalEdgeStyle;rounded=0;html=1;strokeColor=#6C8EBF;" parent="X-7tLOTNDGGn71ntqQBZ-1" source="X-7tLOTNDGGn71ntqQBZ-2" target="X-7tLOTNDGGn71ntqQBZ-3" edge="1">
          <mxGeometry relative="1" as="geometry" />
        </mxCell>
        <mxCell id="X-7tLOTNDGGn71ntqQBZ-12" style="edgeStyle=orthogonalEdgeStyle;rounded=0;html=1;strokeColor=#6C8EBF;" parent="X-7tLOTNDGGn71ntqQBZ-1" source="X-7tLOTNDGGn71ntqQBZ-3" target="X-7tLOTNDGGn71ntqQBZ-4" edge="1">
          <mxGeometry relative="1" as="geometry" />
        </mxCell>
        <mxCell id="X-7tLOTNDGGn71ntqQBZ-13" value="Yes" style="edgeLabel;html=1;" parent="X-7tLOTNDGGn71ntqQBZ-1" source="X-7tLOTNDGGn71ntqQBZ-4" target="X-7tLOTNDGGn71ntqQBZ-5" edge="1">
          <mxGeometry x="-0.618" y="8" relative="1" as="geometry">
            <mxPoint as="offset" />
            <Array as="points">
              <mxPoint x="650" y="95" />
              <mxPoint x="680" y="60" />
              <mxPoint x="710" y="100" />
              <mxPoint x="680" y="80" />
            </Array>
          </mxGeometry>
        </mxCell>
        <mxCell id="X-7tLOTNDGGn71ntqQBZ-14" value="No" style="edgeLabel;html=1;" parent="X-7tLOTNDGGn71ntqQBZ-1" source="X-7tLOTNDGGn71ntqQBZ-4" target="X-7tLOTNDGGn71ntqQBZ-6" edge="1">
          <mxGeometry x="-0.8244" y="26" relative="1" as="geometry">
            <mxPoint as="offset" />
          </mxGeometry>
        </mxCell>
        <mxCell id="X-7tLOTNDGGn71ntqQBZ-15" style="edgeStyle=orthogonalEdgeStyle;rounded=0;html=1;strokeColor=#82B366;" parent="X-7tLOTNDGGn71ntqQBZ-1" source="X-7tLOTNDGGn71ntqQBZ-5" target="X-7tLOTNDGGn71ntqQBZ-7" edge="1">
          <mxGeometry relative="1" as="geometry" />
        </mxCell>
        <mxCell id="X-7tLOTNDGGn71ntqQBZ-16" style="edgeStyle=orthogonalEdgeStyle;rounded=0;html=1;strokeColor=#82B366;" parent="X-7tLOTNDGGn71ntqQBZ-1" source="X-7tLOTNDGGn71ntqQBZ-6" target="X-7tLOTNDGGn71ntqQBZ-7" edge="1">
          <mxGeometry relative="1" as="geometry" />
        </mxCell>
        <mxCell id="X-7tLOTNDGGn71ntqQBZ-17" style="edgeStyle=orthogonalEdgeStyle;rounded=0;html=1;strokeColor=#82B366;" parent="X-7tLOTNDGGn71ntqQBZ-1" source="X-7tLOTNDGGn71ntqQBZ-7" target="X-7tLOTNDGGn71ntqQBZ-8" edge="1">
          <mxGeometry relative="1" as="geometry" />
        </mxCell>
        <mxCell id="X-7tLOTNDGGn71ntqQBZ-18" style="edgeStyle=orthogonalEdgeStyle;rounded=0;html=1;strokeColor=#82B366;" parent="X-7tLOTNDGGn71ntqQBZ-1" source="X-7tLOTNDGGn71ntqQBZ-8" target="X-7tLOTNDGGn71ntqQBZ-9" edge="1">
          <mxGeometry relative="1" as="geometry" />
        </mxCell>
        <mxCell id="X-7tLOTNDGGn71ntqQBZ-10" value="End" style="rounded=1;whiteSpace=wrap;html=1;fillColor=#FFFFFF;strokeColor=#000000;" parent="X-7tLOTNDGGn71ntqQBZ-1" vertex="1">
          <mxGeometry x="1000" y="370" width="80" height="40" as="geometry" />
        </mxCell>
        <mxCell id="X-7tLOTNDGGn71ntqQBZ-19" style="edgeStyle=orthogonalEdgeStyle;rounded=0;html=1;strokeColor=#000000;" parent="X-7tLOTNDGGn71ntqQBZ-1" source="X-7tLOTNDGGn71ntqQBZ-9" target="X-7tLOTNDGGn71ntqQBZ-10" edge="1">
          <mxGeometry relative="1" as="geometry" />
        </mxCell>
        <mxCell id="X-7tLOTNDGGn71ntqQBZ-23" value="ML Model Service" style="swimlane;html=1;startSize=20;horizontal=0;" parent="1" vertex="1">
          <mxGeometry x="-120" y="510" width="900" height="140" as="geometry" />
        </mxCell>
        <mxCell id="X-7tLOTNDGGn71ntqQBZ-24" value="Auth &amp; Rate-Limit Check" style="rounded=1;whiteSpace=wrap;html=1;fillColor=#FFF2CC;strokeColor=#D6B656;" parent="X-7tLOTNDGGn71ntqQBZ-23" vertex="1">
          <mxGeometry x="80" y="30" width="180" height="50" as="geometry" />
        </mxCell>
        <mxCell id="X-7tLOTNDGGn71ntqQBZ-25" value="Flask/FastAPI Endpoint" style="rounded=1;whiteSpace=wrap;html=1;fillColor=#FFF2CC;strokeColor=#D6B656;" parent="X-7tLOTNDGGn71ntqQBZ-23" vertex="1">
          <mxGeometry x="450" y="30" width="180" height="50" as="geometry" />
        </mxCell>
        <mxCell id="X-7tLOTNDGGn71ntqQBZ-51" style="edgeStyle=orthogonalEdgeStyle;rounded=0;orthogonalLoop=1;jettySize=auto;html=1;exitX=0.25;exitY=0;exitDx=0;exitDy=0;" parent="X-7tLOTNDGGn71ntqQBZ-23" source="X-7tLOTNDGGn71ntqQBZ-26" edge="1">
          <mxGeometry relative="1" as="geometry">
            <mxPoint x="719.6666666666665" y="40" as="targetPoint" />
          </mxGeometry>
        </mxCell>
        <mxCell id="X-7tLOTNDGGn71ntqQBZ-52" value="Text" style="edgeLabel;html=1;align=center;verticalAlign=middle;resizable=0;points=[];" parent="X-7tLOTNDGGn71ntqQBZ-51" vertex="1" connectable="0">
          <mxGeometry x="1" y="-1" relative="1" as="geometry">
            <mxPoint x="-1" y="-1" as="offset" />
          </mxGeometry>
        </mxCell>
        <mxCell id="X-7tLOTNDGGn71ntqQBZ-26" value="Generate Predictions &amp; Designs" style="rounded=1;whiteSpace=wrap;html=1;fillColor=#FFF2CC;strokeColor=#D6B656;" parent="X-7tLOTNDGGn71ntqQBZ-23" vertex="1">
          <mxGeometry x="670" y="30" width="200" height="50" as="geometry" />
        </mxCell>
        <mxCell id="X-7tLOTNDGGn71ntqQBZ-27" value="Monitoring &amp; Alerts" style="swimlane;html=1;startSize=20;horizontal=0;" parent="1" vertex="1">
          <mxGeometry x="-110" y="810" width="900" height="240" as="geometry" />
        </mxCell>
        <mxCell id="X-7tLOTNDGGn71ntqQBZ-28" value="Log Ingestion Metrics" style="rounded=1;whiteSpace=wrap;html=1;fillColor=#E1D5E7;strokeColor=#9673A6;" parent="X-7tLOTNDGGn71ntqQBZ-27" vertex="1">
          <mxGeometry x="250" y="30" width="160" height="50" as="geometry" />
        </mxCell>
        <mxCell id="X-7tLOTNDGGn71ntqQBZ-29" value="Log Model Metrics" style="rounded=1;whiteSpace=wrap;html=1;fillColor=#E1D5E7;strokeColor=#9673A6;" parent="X-7tLOTNDGGn71ntqQBZ-27" vertex="1">
          <mxGeometry x="500" y="30" width="150" height="50" as="geometry" />
        </mxCell>
        <mxCell id="X-7tLOTNDGGn71ntqQBZ-30" value="Send Failure Alert" style="rounded=1;whiteSpace=wrap;html=1;fillColor=#F8CECC;strokeColor=#B85450;" parent="X-7tLOTNDGGn71ntqQBZ-27" vertex="1">
          <mxGeometry x="20" y="100" width="150" height="50" as="geometry" />
        </mxCell>
        <mxCell id="X-7tLOTNDGGn71ntqQBZ-31" value="Drift Detected?" style="rhombus;whiteSpace=wrap;html=1;fillColor=#FFF2CC;strokeColor=#D6B656;" parent="X-7tLOTNDGGn71ntqQBZ-27" vertex="1">
          <mxGeometry x="515" y="130" width="120" height="60" as="geometry" />
        </mxCell>
        <mxCell id="X-7tLOTNDGGn71ntqQBZ-32" value="Trigger Retrain Pipeline" style="rounded=1;whiteSpace=wrap;html=1;fillColor=#FFF2CC;strokeColor=#D6B656;" parent="X-7tLOTNDGGn71ntqQBZ-27" vertex="1">
          <mxGeometry x="690" y="100" width="180" height="50" as="geometry" />
        </mxCell>
        <mxCell id="X-7tLOTNDGGn71ntqQBZ-34" style="edgeStyle=orthogonalEdgeStyle;rounded=0;html=1;strokeColor=#000000;" parent="1" source="X-7tLOTNDGGn71ntqQBZ-7" target="X-7tLOTNDGGn71ntqQBZ-24" edge="1">
          <mxGeometry relative="1" as="geometry" />
        </mxCell>
        <mxCell id="X-7tLOTNDGGn71ntqQBZ-35" style="edgeStyle=orthogonalEdgeStyle;rounded=0;html=1;strokeColor=#000000;" parent="1" source="X-7tLOTNDGGn71ntqQBZ-24" target="X-7tLOTNDGGn71ntqQBZ-25" edge="1">
          <mxGeometry relative="1" as="geometry" />
        </mxCell>
        <mxCell id="X-7tLOTNDGGn71ntqQBZ-36" style="edgeStyle=orthogonalEdgeStyle;rounded=0;html=1;strokeColor=#000000;" parent="1" source="X-7tLOTNDGGn71ntqQBZ-20" target="X-7tLOTNDGGn71ntqQBZ-8" edge="1">
          <mxGeometry relative="1" as="geometry" />
        </mxCell>
        <mxCell id="X-7tLOTNDGGn71ntqQBZ-37" style="edgeStyle=orthogonalEdgeStyle;rounded=0;html=1;strokeColor=#9673A6;" parent="1" source="X-7tLOTNDGGn71ntqQBZ-3" target="X-7tLOTNDGGn71ntqQBZ-28" edge="1">
          <mxGeometry relative="1" as="geometry" />
        </mxCell>
        <mxCell id="X-7tLOTNDGGn71ntqQBZ-38" style="edgeStyle=orthogonalEdgeStyle;rounded=0;html=1;strokeColor=#9673A6;" parent="1" source="X-7tLOTNDGGn71ntqQBZ-25" target="X-7tLOTNDGGn71ntqQBZ-29" edge="1">
          <mxGeometry relative="1" as="geometry" />
        </mxCell>
        <mxCell id="X-7tLOTNDGGn71ntqQBZ-39" style="edgeStyle=orthogonalEdgeStyle;rounded=0;html=1;strokeColor=#B85450;" parent="1" source="X-7tLOTNDGGn71ntqQBZ-6" target="X-7tLOTNDGGn71ntqQBZ-30" edge="1">
          <mxGeometry relative="1" as="geometry" />
        </mxCell>
        <mxCell id="X-7tLOTNDGGn71ntqQBZ-40" style="edgeStyle=orthogonalEdgeStyle;rounded=0;html=1;strokeColor=#9673A6;" parent="1" source="X-7tLOTNDGGn71ntqQBZ-29" target="X-7tLOTNDGGn71ntqQBZ-31" edge="1">
          <mxGeometry relative="1" as="geometry" />
        </mxCell>
        <mxCell id="X-7tLOTNDGGn71ntqQBZ-41" value="Yes" style="edgeLabel;html=1;" parent="1" source="X-7tLOTNDGGn71ntqQBZ-31" target="X-7tLOTNDGGn71ntqQBZ-32" edge="1">
          <mxGeometry relative="1" as="geometry">
            <mxPoint x="550" y="130" as="offset" />
          </mxGeometry>
        </mxCell>
        <mxCell id="X-7tLOTNDGGn71ntqQBZ-45" value="" style="edgeStyle=orthogonalEdgeStyle;rounded=0;html=1;strokeColor=#000000;" parent="1" source="X-7tLOTNDGGn71ntqQBZ-25" target="X-7tLOTNDGGn71ntqQBZ-20" edge="1">
          <mxGeometry relative="1" as="geometry">
            <mxPoint x="430" y="540" as="sourcePoint" />
            <mxPoint x="410" y="-90" as="targetPoint" />
          </mxGeometry>
        </mxCell>
        <mxCell id="X-7tLOTNDGGn71ntqQBZ-20" value="Data Storage" style="swimlane;html=1;startSize=20;horizontal=0;" parent="1" vertex="1">
          <mxGeometry x="-110" y="100" width="1130" height="120" as="geometry" />
        </mxCell>
        <mxCell id="X-7tLOTNDGGn71ntqQBZ-21" value="Raw Data Storage (DB/S3)" style="ellipse;whiteSpace=wrap;html=1;fillColor=#FFE6CC;strokeColor=#C9985A;" parent="X-7tLOTNDGGn71ntqQBZ-20" vertex="1">
          <mxGeometry x="360" y="30" width="140" height="60" as="geometry" />
        </mxCell>
        <mxCell id="X-7tLOTNDGGn71ntqQBZ-22" value="Results Storage (DB/S3)" style="ellipse;whiteSpace=wrap;html=1;fillColor=#FFE6CC;strokeColor=#C9985A;" parent="X-7tLOTNDGGn71ntqQBZ-20" vertex="1">
          <mxGeometry x="660" y="30" width="140" height="60" as="geometry" />
        </mxCell>
        <mxCell id="X-7tLOTNDGGn71ntqQBZ-33" style="edgeStyle=orthogonalEdgeStyle;rounded=0;html=1;strokeColor=#C9985A;exitX=0.5;exitY=1;exitDx=0;exitDy=0;entryX=1;entryY=0.5;entryDx=0;entryDy=0;" parent="1" source="X-7tLOTNDGGn71ntqQBZ-5" target="X-7tLOTNDGGn71ntqQBZ-21" edge="1">
          <mxGeometry relative="1" as="geometry">
            <mxPoint x="470" y="-260" as="sourcePoint" />
            <mxPoint x="395" y="185" as="targetPoint" />
            <Array as="points">
              <mxPoint x="490" y="160" />
            </Array>
          </mxGeometry>
        </mxCell>
      </root>
    </mxGraphModel>
  </diagram>
</mxfile>
